# xmcd
#
# Track frame offsets: 
#        150
#        14372
#        26241
#        36202
#        45867
#        55187
#        66408
#        77020
#        87808
#        98794
#        110793
#        122249
#        135327
#        145349
#        155745
#        166645
#        176349
#        188579
#        200488
#        212399
#        226220
#        237460
#        247462
#        259580
#        271377
#        282214
#        292739
#        303619
#        314278
#        327717
#
# Disc length: 4540 seconds
#
# Revision: 1
# Processed by: cddbd v1.5.2PL0 Copyright (c) Steve Scherf et al.
# Submitted via: ExactAudioCopyFreeDBPlugin 1.0
#
DISCID=af11ba1e
DTITLE=Waylon Jennings - The Journey - Destiny's Child - Vol..6
DYEAR=1999
DGENRE=Country
TTITLE0=Gentle On My Mind
TTITLE1=The Crowd
TTITLE2=Sorrow (Breaks A Good Man Down)
TTITLE3=Wave Goodbye To Me
TTITLE4=Right Before My Eyes
TTITLE5=Looking At A Heart That Needs A Home
TTITLE6=Hangin' On
TTITLE7=Walk On Out Of My Mind
TTITLE8=Julie
TTITLE9=How Long Have You Been There
TTITLE10=I'm Doing This For You
TTITLE11=I've Been Needing Someone Like You
TTITLE12=Straighten My Mind
TTITLE13=Christina
TTITLE14=You Love The Ground I Walk On
TTITLE15=All Of Me Belongs To Me (& Anita Carter)
TTITLE16=No One's Gonna Miss Me (& Anita Carter)
TTITLE17=Rings Of Gold (& Anita Carter)
TTITLE18=How Much Rain Can One Man Stand
TTITLE19=My Ramona
TTITLE20=New York City, R.F.D.
TTITLE21=You'll Think Of Me
TTITLE22=I Got You (& Anita Carter)
TTITLE23=Such A Waste Of Love
TTITLE24=Only Daddy That'll Walk The Line
TTITLE25=Yours Love
TTITLE26=Kentucky Woman
TTITLE27=See You Around (On Your Way Down)
TTITLE28=Too Far Gone
TTITLE29=Weakness In A Man
EXTD=
EXTT0=
EXTT1=
EXTT2=
EXTT3=
EXTT4=
EXTT5=
EXTT6=
EXTT7=
EXTT8=
EXTT9=
EXTT10=
EXTT11=
EXTT12=
EXTT13=
EXTT14=
EXTT15=
EXTT16=
EXTT17=
EXTT18=
EXTT19=
EXTT20=
EXTT21=
EXTT22=
EXTT23=
EXTT24=
EXTT25=
EXTT26=
EXTT27=
EXTT28=
EXTT29=
PLAYORDER=
